<svg width="32" height="31" viewBox="0 0 32 31" fill="none" xmlns="http://www.w3.org/2000/svg">
<path d="M28.3333 4.00002H1.66667V0.666687H28.3333V4.00002ZM18.8333 14C17.5 15.6 16.6667 17.6334 16.6667 19.8334C16.6667 21.7334 17.3833 23.7667 18.3333 25.6667V27.3334H1.66667V17.3334H0V14L1.66667 5.66669H28.3333L29.5 11.5C28.4 10.9667 27.2 10.6667 25.9333 10.6667L25.6 9.00002H4.4L3.4 14H18.8333ZM15 17.3334H5V24H15V17.3334ZM31.6667 19.8334C31.6667 24.1667 25.8333 30.6667 25.8333 30.6667C25.8333 30.6667 20 24.1667 20 19.8334C20 16.6667 22.6667 14 25.8333 14C29 14 31.6667 16.6667 31.6667 19.8334ZM27.8333 20C27.8333 19 26.8333 18 25.8333 18C24.8333 18 23.8333 18.8334 23.8333 20C23.8333 21 24.6667 22 25.8333 22C27 22 28 21 27.8333 20Z" fill="black"/>
</svg>
