<svg width="336" height="57" viewBox="0 0 336 57" fill="none" xmlns="http://www.w3.org/2000/svg">
<g filter="url(#filter0_d_511_17230)">
<rect x="4" width="328" height="49" rx="12" fill="#FEE500" shape-rendering="crispEdges"/>
<path d="M118.18 16.86H119.8C119.8 22.08 118.04 26.88 111.56 30.1L110.66 28.82C116.38 26 118.18 21.96 118.18 17.04V16.86ZM111.64 16.86H119.16V18.2H111.64V16.86ZM117.92 21.34V22.62L111 23.3L110.74 21.82L117.92 21.34ZM122.72 14.96H124.4V33.06H122.72V14.96ZM123.94 22.3H127.28V23.68H123.94V22.3ZM136.578 16.86H138.198C138.198 22.08 136.438 26.88 129.958 30.1L129.058 28.82C134.778 26 136.578 21.96 136.578 17.04V16.86ZM130.038 16.86H137.558V18.2H130.038V16.86ZM136.318 21.34V22.62L129.398 23.3L129.138 21.82L136.318 21.34ZM141.118 14.96H142.798V33.06H141.118V14.96ZM142.338 22.3H145.678V23.68H142.338V22.3ZM154.617 25.2H156.277V29.7H154.617V25.2ZM155.457 16.16C159.277 16.16 162.017 18.02 162.017 20.9C162.017 23.78 159.277 25.64 155.457 25.64C151.637 25.64 148.877 23.78 148.877 20.9C148.877 18.02 151.637 16.16 155.457 16.16ZM155.457 17.48C152.577 17.48 150.477 18.84 150.477 20.9C150.477 22.96 152.577 24.32 155.457 24.32C158.317 24.32 160.417 22.96 160.417 20.9C160.417 18.84 158.317 17.48 155.457 17.48ZM147.297 29.38H163.677V30.76H147.297V29.38ZM171.32 29.46H187.7V30.84H171.32V29.46ZM178.64 25.58H180.3V30.04H178.64V25.58ZM173.3 16.32H185.68V21.8H175V25.42H173.36V20.46H184.04V17.66H173.3V16.32ZM173.36 24.72H186.1V26.08H173.36V24.72ZM191.479 16.9H203.119V18.24H191.479V16.9ZM189.719 29.04H206.059V30.42H189.719V29.04ZM202.239 16.9H203.859V18.7C203.859 21.02 203.859 23.6 203.179 27.5L201.519 27.34C202.239 23.64 202.239 20.94 202.239 18.7V16.9ZM221.257 15H222.937V28.2H221.257V15ZM211.317 31.3H223.477V32.66H211.317V31.3ZM211.317 26.84H212.957V31.76H211.317V26.84ZM213.237 16.24C215.937 16.24 217.937 18.08 217.937 20.7C217.937 23.3 215.937 25.16 213.237 25.16C210.537 25.16 208.517 23.3 208.517 20.7C208.517 18.08 210.537 16.24 213.237 16.24ZM213.237 17.68C211.477 17.68 210.137 18.92 210.137 20.7C210.137 22.46 211.477 23.7 213.237 23.7C214.997 23.7 216.337 22.46 216.337 20.7C216.337 18.92 214.997 17.68 213.237 17.68Z" fill="black"/>
</g>
<path opacity="0.902" fill-rule="evenodd" clip-rule="evenodd" d="M28.5 13.311C21.9583 13.311 16 18.5694 16 23.018C16 26.3513 18.1639 29.2916 21.4597 31.0388L20.0736 36.1305C19.95 36.5819 20.4625 36.9402 20.8556 36.6805L26.9347 32.6458C27.4472 32.6958 27.9694 32.7249 28.5 32.7249C35.4028 32.7249 41 28.3791 41 23.018C41 18.5694 35.4028 13.311 28.5 13.311Z" fill="black"/>
<defs>
<filter id="filter0_d_511_17230" x="0" y="0" width="336" height="57" filterUnits="userSpaceOnUse" color-interpolation-filters="sRGB">
<feFlood flood-opacity="0" result="BackgroundImageFix"/>
<feColorMatrix in="SourceAlpha" type="matrix" values="0 0 0 0 0 0 0 0 0 0 0 0 0 0 0 0 0 0 127 0" result="hardAlpha"/>
<feOffset dy="4"/>
<feGaussianBlur stdDeviation="2"/>
<feComposite in2="hardAlpha" operator="out"/>
<feColorMatrix type="matrix" values="0 0 0 0 0 0 0 0 0 0 0 0 0 0 0 0 0 0 0.25 0"/>
<feBlend mode="normal" in2="BackgroundImageFix" result="effect1_dropShadow_511_17230"/>
<feBlend mode="normal" in="SourceGraphic" in2="effect1_dropShadow_511_17230" result="shape"/>
</filter>
</defs>
</svg>
