<svg width="111" height="85" viewBox="0 0 111 85" fill="none" xmlns="http://www.w3.org/2000/svg">
<path fill-rule="evenodd" clip-rule="evenodd" d="M0 21.1175L3.67687 17.3633L19.2862 1.42582C20.2726 0.487417 21.5772 -0.0234555 22.9251 0.000827666C24.2731 0.0251109 25.5592 0.582654 26.5125 1.556C27.4658 2.52934 28.0119 3.84248 28.0357 5.21878C28.0594 6.59508 27.5591 7.92708 26.64 8.93415L19.9176 15.805H91.9288C93.3088 15.805 94.6322 16.3647 95.608 17.361C96.5838 18.3573 97.1319 19.7085 97.1319 21.1175C97.1319 22.5264 96.5838 23.8777 95.608 24.874C94.6322 25.8703 93.3088 26.43 91.9288 26.43H19.9106L26.64 33.3008C27.5591 34.3079 28.0594 35.6399 28.0357 37.0162C28.0119 38.3925 27.4658 39.7056 26.5125 40.679C25.5592 41.6523 24.2731 42.2099 22.9251 42.2341C21.5772 42.2584 20.2726 41.7476 19.2862 40.8092L3.67687 24.8717L0 21.1175ZM111 63.6175L107.323 59.8633L91.7138 43.9258C91.234 43.4182 90.6601 43.0132 90.0254 42.7345C89.3907 42.4558 88.708 42.3089 88.0172 42.3024C87.3263 42.296 86.6411 42.43 86.0015 42.6969C85.362 42.9637 84.7809 43.3579 84.2921 43.8564C83.8033 44.355 83.4167 44.948 83.1548 45.6007C82.8929 46.2535 82.7609 46.9529 82.7666 47.6583C82.7722 48.3637 82.9155 49.0609 83.1879 49.7092C83.4602 50.3575 83.8563 50.9438 84.3531 51.4342L91.0824 58.305H19.0642C17.6843 58.305 16.3609 58.8647 15.3851 59.861C14.4093 60.8573 13.8611 62.2085 13.8611 63.6175C13.8611 65.0265 14.4093 66.3777 15.3851 67.374C16.3609 68.3703 17.6843 68.93 19.0642 68.93H91.0755L84.3461 75.8008C83.8349 76.2872 83.4249 76.8737 83.1405 77.5253C82.8561 78.177 82.7032 78.8805 82.6909 79.5938C82.6786 80.3071 82.8071 81.0156 83.0688 81.6771C83.3305 82.3386 83.72 82.9395 84.2141 83.444C84.7081 83.9485 85.2967 84.3462 85.9445 84.6134C86.5924 84.8805 87.2864 85.0118 87.985 84.9992C88.6836 84.9866 89.3726 84.8305 90.0109 84.5401C90.6491 84.2497 91.2235 83.8311 91.6999 83.3092L107.309 67.3717L111 63.6175Z" fill="#E7C61C"/>
</svg>
