<svg width="98" height="97" viewBox="0 0 98 97" fill="none" xmlns="http://www.w3.org/2000/svg">
<g clip-path="url(#clip0_2313_18677)">
<path d="M12.9482 12.0823C12.9482 8.87784 14.2212 5.80467 16.4871 3.53881C18.7529 1.27295 21.8261 0 25.0305 0L73.3595 0C76.5639 0 79.6371 1.27295 81.903 3.53881C84.1688 5.80467 85.4418 8.87784 85.4418 12.0823V84.5758C85.4418 87.7802 84.1688 90.8534 81.903 93.1192C79.6371 95.3851 76.5639 96.658 73.3595 96.658H25.0305C21.8261 96.658 18.7529 95.3851 16.4871 93.1192C14.2212 90.8534 12.9482 87.7802 12.9482 84.5758V12.0823ZM25.0305 15.1028V27.1851C25.0305 27.9862 25.3487 28.7545 25.9152 29.3209C26.4817 29.8874 27.25 30.2056 28.0511 30.2056H70.339C71.1401 30.2056 71.9084 29.8874 72.4748 29.3209C73.0413 28.7545 73.3595 27.9862 73.3595 27.1851V15.1028C73.3595 14.3017 73.0413 13.5334 72.4748 12.967C71.9084 12.4005 71.1401 12.0823 70.339 12.0823H28.0511C27.25 12.0823 26.4817 12.4005 25.9152 12.967C25.3487 13.5334 25.0305 14.3017 25.0305 15.1028ZM25.0305 39.2673V45.3085C25.0305 46.1096 25.3487 46.8778 25.9152 47.4443C26.4817 48.0108 27.25 48.329 28.0511 48.329H34.0922C34.8933 48.329 35.6616 48.0108 36.2281 47.4443C36.7945 46.8778 37.1128 46.1096 37.1128 45.3085V39.2673C37.1128 38.4662 36.7945 37.6979 36.2281 37.1315C35.6616 36.565 34.8933 36.2468 34.0922 36.2468H28.0511C27.25 36.2468 26.4817 36.565 25.9152 37.1315C25.3487 37.6979 25.0305 38.4662 25.0305 39.2673ZM28.0511 54.3701C27.25 54.3701 26.4817 54.6884 25.9152 55.2548C25.3487 55.8213 25.0305 56.5896 25.0305 57.3907V63.4318C25.0305 64.2329 25.3487 65.0012 25.9152 65.5677C26.4817 66.1342 27.25 66.4524 28.0511 66.4524H34.0922C34.8933 66.4524 35.6616 66.1342 36.2281 65.5677C36.7945 65.0012 37.1128 64.2329 37.1128 63.4318V57.3907C37.1128 56.5896 36.7945 55.8213 36.2281 55.2548C35.6616 54.6884 34.8933 54.3701 34.0922 54.3701H28.0511ZM25.0305 75.5141V81.5552C25.0305 82.3563 25.3487 83.1246 25.9152 83.6911C26.4817 84.2575 27.25 84.5758 28.0511 84.5758H34.0922C34.8933 84.5758 35.6616 84.2575 36.2281 83.6911C36.7945 83.1246 37.1128 82.3563 37.1128 81.5552V75.5141C37.1128 74.713 36.7945 73.9447 36.2281 73.3782C35.6616 72.8118 34.8933 72.4935 34.0922 72.4935H28.0511C27.25 72.4935 26.4817 72.8118 25.9152 73.3782C25.3487 73.9447 25.0305 74.713 25.0305 75.5141ZM46.1744 36.2468C45.3733 36.2468 44.605 36.565 44.0386 37.1315C43.4721 37.6979 43.1539 38.4662 43.1539 39.2673V45.3085C43.1539 46.1096 43.4721 46.8778 44.0386 47.4443C44.605 48.0108 45.3733 48.329 46.1744 48.329H52.2156C53.0167 48.329 53.785 48.0108 54.3514 47.4443C54.9179 46.8778 55.2361 46.1096 55.2361 45.3085V39.2673C55.2361 38.4662 54.9179 37.6979 54.3514 37.1315C53.785 36.565 53.0167 36.2468 52.2156 36.2468H46.1744ZM43.1539 57.3907V63.4318C43.1539 64.2329 43.4721 65.0012 44.0386 65.5677C44.605 66.1342 45.3733 66.4524 46.1744 66.4524H52.2156C53.0167 66.4524 53.785 66.1342 54.3514 65.5677C54.9179 65.0012 55.2361 64.2329 55.2361 63.4318V57.3907C55.2361 56.5896 54.9179 55.8213 54.3514 55.2548C53.785 54.6884 53.0167 54.3701 52.2156 54.3701H46.1744C45.3733 54.3701 44.605 54.6884 44.0386 55.2548C43.4721 55.8213 43.1539 56.5896 43.1539 57.3907ZM46.1744 72.4935C45.3733 72.4935 44.605 72.8118 44.0386 73.3782C43.4721 73.9447 43.1539 74.713 43.1539 75.5141V81.5552C43.1539 82.3563 43.4721 83.1246 44.0386 83.6911C44.605 84.2575 45.3733 84.5758 46.1744 84.5758H52.2156C53.0167 84.5758 53.785 84.2575 54.3514 83.6911C54.9179 83.1246 55.2361 82.3563 55.2361 81.5552V75.5141C55.2361 74.713 54.9179 73.9447 54.3514 73.3782C53.785 72.8118 53.0167 72.4935 52.2156 72.4935H46.1744ZM61.2773 39.2673V45.3085C61.2773 46.1096 61.5955 46.8778 62.162 47.4443C62.7284 48.0108 63.4967 48.329 64.2978 48.329H70.339C71.1401 48.329 71.9084 48.0108 72.4748 47.4443C73.0413 46.8778 73.3595 46.1096 73.3595 45.3085V39.2673C73.3595 38.4662 73.0413 37.6979 72.4748 37.1315C71.9084 36.565 71.1401 36.2468 70.339 36.2468H64.2978C63.4967 36.2468 62.7284 36.565 62.162 37.1315C61.5955 37.6979 61.2773 38.4662 61.2773 39.2673ZM64.2978 54.3701C63.4967 54.3701 62.7284 54.6884 62.162 55.2548C61.5955 55.8213 61.2773 56.5896 61.2773 57.3907V81.5552C61.2773 82.3563 61.5955 83.1246 62.162 83.6911C62.7284 84.2575 63.4967 84.5758 64.2978 84.5758H70.339C71.1401 84.5758 71.9084 84.2575 72.4748 83.6911C73.0413 83.1246 73.3595 82.3563 73.3595 81.5552V57.3907C73.3595 56.5896 73.0413 55.8213 72.4748 55.2548C71.9084 54.6884 71.1401 54.3701 70.339 54.3701H64.2978Z" fill="#5DA0BD"/>
</g>
<defs>
<clipPath id="clip0_2313_18677">
<rect width="96.658" height="96.658" fill="white" transform="translate(0.866211)"/>
</clipPath>
</defs>
</svg>
