<svg width="73" height="89" viewBox="0 0 73 89" fill="none" xmlns="http://www.w3.org/2000/svg">
<path d="M27.8083 37.8698L35.3384 31.247C37.3973 29.4326 38.8445 27.0689 39.4941 24.4594C40.1437 21.8499 39.9662 19.1135 38.9842 16.6015L35.7731 8.37015C34.5734 5.29714 32.1984 2.77881 29.1318 1.32821C26.0653 -0.122384 22.5381 -0.396108 19.2687 0.562808C7.23742 4.0963 -2.01038 14.8314 0.836172 27.5789C2.70817 35.965 6.2909 46.4915 13.0778 57.691C19.8786 68.9174 27.6471 77.2093 34.3077 83.0379C44.3618 91.8212 58.7348 89.627 67.9826 81.3486C70.4601 79.129 71.9632 76.0864 72.1859 72.8403C72.4086 69.5942 71.3343 66.3887 69.1815 63.8763L63.2921 57.0112C61.5158 54.9352 59.1331 53.4169 56.4505 52.6516C53.7678 51.8864 50.908 51.9092 48.239 52.7172L38.5074 55.6584C35.9928 53.1698 33.7903 50.4073 31.945 47.427C30.1642 44.4133 28.775 41.2013 27.8083 37.863" fill="#E7C61C"/>
</svg>
