<svg width="224" height="188" viewBox="0 0 224 188" fill="none" xmlns="http://www.w3.org/2000/svg">
<rect width="224" height="187.871" rx="20" fill="#FFF9ED"/>
<path fill-rule="evenodd" clip-rule="evenodd" d="M0 118.248V151.415C0 168.86 12.6051 183.003 28.1542 183.003H190.041C205.59 183.003 218.195 168.86 218.195 151.415V118.248H0Z" fill="#F5D73E"/>
<path d="M76.8192 144.634H78.9092V145.736C78.9092 149.061 77.2942 152.063 73.9122 153.146L72.6202 151.189C75.5462 150.239 76.8192 147.94 76.8192 145.736V144.634ZM77.3322 144.634H79.4032V145.736C79.4032 147.826 80.6572 149.973 83.5262 150.885L82.2342 152.842C78.9282 151.797 77.3322 148.909 77.3322 145.736V144.634ZM84.6282 142.829H87.1742V153.431H84.6282V142.829ZM75.1662 154.21H87.1742V160.423H84.6282V156.224H75.1662V154.21ZM73.2852 143.855H82.8612V145.85H73.2852V143.855ZM94.6017 151.854H97.1287V155.711H94.6017V151.854ZM102.316 142.829H104.843V156.148H102.316V142.829ZM92.1697 158.105H105.223V160.119H92.1697V158.105ZM92.1697 154.894H94.6967V158.637H92.1697V154.894ZM90.2697 152.614L89.9657 150.6C93.1767 150.6 97.4707 150.562 101.157 150.087L101.309 151.892C97.5657 152.519 93.4427 152.614 90.2697 152.614ZM98.9907 153.051H102.867V154.78H98.9907V153.051ZM95.6277 143.437C98.1927 143.437 99.9977 144.71 99.9977 146.572C99.9977 148.453 98.1927 149.707 95.6277 149.707C93.0437 149.707 91.2387 148.453 91.2387 146.572C91.2387 144.71 93.0437 143.437 95.6277 143.437ZM95.6277 145.28C94.4497 145.28 93.6327 145.717 93.6327 146.572C93.6327 147.427 94.4497 147.864 95.6277 147.864C96.7867 147.864 97.6037 147.427 97.6037 146.572C97.6037 145.717 96.7867 145.28 95.6277 145.28ZM112.993 144.102H120.517V146.135H112.993V144.102ZM115.159 148.206H117.667V152.614H115.159V148.206ZM119.529 144.102H122.018V145.204C122.018 146.439 122.018 148.187 121.6 150.372L119.149 150.106C119.529 147.94 119.529 146.42 119.529 145.204V144.102ZM123.728 142.829H126.274V155.996H123.728V142.829ZM125.267 148.187H128.364V150.258H125.267V148.187ZM114.532 158.105H126.825V160.119H114.532V158.105ZM114.532 154.818H117.059V158.732H114.532V154.818ZM112.195 153.64L111.967 151.645C115.007 151.645 119.244 151.588 122.778 151.094L122.93 152.88C119.301 153.564 115.216 153.64 112.195 153.64ZM141.815 142.81H144.342V160.461H141.815V142.81ZM130.643 154.305H132.201C135.317 154.305 137.806 154.191 140.599 153.716L140.846 155.749C137.996 156.262 135.412 156.357 132.201 156.357H130.643V154.305ZM130.624 144.311H138.927V151.113H133.208V155.065H130.643V149.118H136.343V146.325H130.624V144.311Z" fill="white"/>
<path d="M90.4451 55.0658C90.4451 56.1258 90.8662 57.1424 91.6158 57.892C92.3654 58.6416 93.382 59.0627 94.442 59.0627C95.5021 59.0627 96.5187 58.6416 97.2683 57.892C98.0178 57.1424 98.4389 56.1258 98.4389 55.0658C98.4389 54.0057 98.0178 52.9891 97.2683 52.2395C96.5187 51.49 95.5021 51.0689 94.442 51.0689C93.382 51.0689 92.3654 51.49 91.6158 52.2395C90.8662 52.9891 90.4451 54.0057 90.4451 55.0658ZM119.756 55.0658C119.756 56.1258 120.177 57.1424 120.926 57.892C121.676 58.6416 122.693 59.0627 123.753 59.0627C124.813 59.0627 125.829 58.6416 126.579 57.892C127.328 57.1424 127.75 56.1258 127.75 55.0658C127.75 54.0057 127.328 52.9891 126.579 52.2395C125.829 51.49 124.813 51.0689 123.753 51.0689C122.693 51.0689 121.676 51.49 120.926 52.2395C120.177 52.9891 119.756 54.0057 119.756 55.0658ZM109.097 25.3389C88.4967 25.3389 71.793 42.0426 71.793 62.6432C71.793 83.2439 88.4967 99.9476 109.097 99.9476C129.698 99.9476 146.402 83.2439 146.402 62.6432C146.402 42.0426 129.698 25.3389 109.097 25.3389ZM130.997 84.5429C128.149 87.3907 124.835 89.6223 121.146 91.1877C117.341 92.8031 113.286 93.6192 109.097 93.6192C104.909 93.6192 100.854 92.8031 97.04 91.1877C93.3568 89.6322 90.0112 87.3754 87.1893 84.5429C84.3416 81.6951 82.11 78.381 80.5445 74.6922C78.9374 70.8868 78.1214 66.8316 78.1214 62.6432C78.1214 58.4548 78.9374 54.3996 80.5528 50.5859C82.1084 46.9027 84.3652 43.5571 87.1977 40.7352C90.0455 37.8875 93.3596 35.6559 97.0484 34.0904C100.854 32.4833 104.909 31.6673 109.097 31.6673C113.286 31.6673 117.341 32.4833 121.155 34.0987C124.838 35.6543 128.183 37.9111 131.005 40.7436C133.853 43.5914 136.085 46.9054 137.65 50.5942C139.257 54.3996 140.073 58.4548 140.073 62.6432C140.073 66.8316 139.257 70.8868 137.642 74.7005C136.088 78.3823 133.831 81.7256 130.997 84.5429ZM121.754 64.3919H117.749C117.399 64.3919 117.099 64.6583 117.074 65.0081C116.758 69.1299 113.302 72.3857 109.097 72.3857C104.892 72.3857 101.428 69.1299 101.12 65.0081C101.095 64.6583 100.795 64.3919 100.446 64.3919H96.4405C96.3501 64.3918 96.2607 64.41 96.1776 64.4456C96.0946 64.4811 96.0196 64.5332 95.9573 64.5986C95.895 64.664 95.8466 64.7415 95.8152 64.8262C95.7837 64.9109 95.7698 65.0011 95.7743 65.0913C96.1407 72.1109 101.978 77.7149 109.097 77.7149C116.217 77.7149 122.054 72.1109 122.42 65.0913C122.425 65.0011 122.411 64.9109 122.379 64.8262C122.348 64.7415 122.3 64.664 122.237 64.5986C122.175 64.5332 122.1 64.4811 122.017 64.4456C121.934 64.41 121.845 64.3918 121.754 64.3919Z" fill="#F5D73E"/>
</svg>
