<svg width="107" height="108" viewBox="0 0 107 108" fill="none" xmlns="http://www.w3.org/2000/svg">
<path d="M31.7873 53.7582C40.0819 53.7582 46.8061 47.0341 46.8061 38.7395C46.8061 30.4448 40.0819 23.7207 31.7873 23.7207C23.4927 23.7207 16.7686 30.4448 16.7686 38.7395C16.7686 47.0341 23.4927 53.7582 31.7873 53.7582Z" fill="#5DA0BD"/>
<path d="M48.8924 62.1025C43.0184 59.1196 36.5353 57.9307 31.7877 57.9307C22.4886 57.9307 3.41895 63.6336 3.41895 75.0354V83.7963H34.708V80.4442C34.708 76.4809 36.3768 72.5072 39.2971 69.1947C41.6271 66.5498 44.8895 64.0946 48.8924 62.1025Z" fill="#5DA0BD"/>
<path d="M71.0025 60.4336C60.1411 60.4336 38.4619 67.142 38.4619 80.4586V90.4711H103.543V80.4586C103.543 67.142 81.864 60.4336 71.0025 60.4336Z" fill="#5DA0BD"/>
<path d="M71.0027 53.7584C81.1406 53.7584 89.359 45.54 89.359 35.4021C89.359 25.2643 81.1406 17.0459 71.0027 17.0459C60.8649 17.0459 52.6465 25.2643 52.6465 35.4021C52.6465 45.54 60.8649 53.7584 71.0027 53.7584Z" fill="#5DA0BD"/>
</svg>
