<svg width="225" height="188" viewBox="0 0 225 188" fill="none" xmlns="http://www.w3.org/2000/svg">
<rect width="224.154" height="188" rx="20" fill="#E0F7F9"/>
<path fill-rule="evenodd" clip-rule="evenodd" d="M0 121.477V155.427C0 173.336 12.9404 187.855 28.9032 187.855H195.097C211.06 187.855 224 173.336 224 155.427V121.477H0Z" fill="#91CAE2"/>
<path d="M88.2344 146.482H90.6474V164.076H88.2344V146.482ZM86.1254 153.189H89.0324V155.222H86.1254V153.189ZM84.3774 146.748H86.7524V163.278H84.3774V146.748ZM76.0174 148.287H82.9714V159.687H76.0174V148.287ZM80.6154 150.263H78.3734V157.711H80.6154V150.263ZM96.9159 148.439H98.9869V149.541C98.9869 152.904 97.4099 155.925 94.0089 157.046L92.7549 155.051C95.6809 154.082 96.9159 151.783 96.9159 149.541V148.439ZM97.4289 148.439H99.4809V149.541C99.4809 151.593 100.659 153.607 103.49 154.462L102.293 156.438C98.9489 155.431 97.4289 152.676 97.4289 149.541V148.439ZM93.4199 147.66H102.92V149.674H93.4199V147.66ZM104.326 146.482H106.853V156.913H104.326V146.482ZM106.15 150.529H109.19V152.6H106.15V150.529ZM101.115 157.236C104.763 157.236 107.062 158.509 107.062 160.656C107.062 162.803 104.763 164.076 101.115 164.076C97.4479 164.076 95.1489 162.803 95.1489 160.656C95.1489 158.509 97.4479 157.236 101.115 157.236ZM101.115 159.212C98.8729 159.212 97.6569 159.668 97.6569 160.656C97.6569 161.644 98.8729 162.138 101.115 162.138C103.357 162.138 104.554 161.644 104.554 160.656C104.554 159.668 103.357 159.212 101.115 159.212ZM115.972 147.755H123.496V149.788H115.972V147.755ZM118.138 151.859H120.646V156.267H118.138V151.859ZM122.508 147.755H124.997V148.857C124.997 150.092 124.997 151.84 124.579 154.025L122.128 153.759C122.508 151.593 122.508 150.073 122.508 148.857V147.755ZM126.707 146.482H129.253V159.649H126.707V146.482ZM128.246 151.84H131.343V153.911H128.246V151.84ZM117.511 161.758H129.804V163.772H117.511V161.758ZM117.511 158.471H120.038V162.385H117.511V158.471ZM115.174 157.293L114.946 155.298C117.986 155.298 122.223 155.241 125.757 154.747L125.909 156.533C122.28 157.217 118.195 157.293 115.174 157.293ZM144.794 146.463H147.321V164.114H144.794V146.463ZM133.622 157.958H135.18C138.296 157.958 140.785 157.844 143.578 157.369L143.825 159.402C140.975 159.915 138.391 160.01 135.18 160.01H133.622V157.958ZM133.603 147.964H141.906V154.766H136.187V158.718H133.622V152.771H139.322V149.978H133.603V147.964Z" fill="white"/>
<path fill-rule="evenodd" clip-rule="evenodd" d="M93.2772 92.735V31.635H132.323V92.735H125.816V76.285C125.816 75.0384 125.359 73.843 124.545 72.9616C123.731 72.0801 122.628 71.585 121.477 71.585H104.123C102.973 71.585 101.869 72.0801 101.056 72.9616C100.242 73.843 99.7849 75.0384 99.7849 76.285V92.735H93.2772ZM106.293 92.735H119.308V78.635H106.293V92.735ZM86.7695 29.285C86.7695 28.0384 87.2266 26.843 88.0402 25.9616C88.8539 25.0801 89.9574 24.585 91.108 24.585H134.493C135.643 24.585 136.747 25.0801 137.56 25.9616C138.374 26.843 138.831 28.0384 138.831 29.285V95.085C138.831 96.3315 138.374 97.5269 137.56 98.4083C136.747 99.2898 135.643 99.785 134.493 99.785H91.108C89.9574 99.785 88.8539 99.2898 88.0402 98.4083C87.2266 97.5269 86.7695 96.3315 86.7695 95.085V29.285ZM99.7849 42.21C99.7849 41.2751 100.128 40.3785 100.738 39.7174C101.348 39.0563 102.176 38.685 103.039 38.685H107.377C108.24 38.685 109.068 39.0563 109.678 39.7174C110.288 40.3785 110.631 41.2751 110.631 42.21C110.631 43.1448 110.288 44.0414 109.678 44.7025C109.068 45.3636 108.24 45.735 107.377 45.735H103.039C102.176 45.735 101.348 45.3636 100.738 44.7025C100.128 44.0414 99.7849 43.1448 99.7849 42.21ZM118.223 38.685C117.36 38.685 116.533 39.0563 115.923 39.7174C115.312 40.3785 114.97 41.2751 114.97 42.21C114.97 43.1448 115.312 44.0414 115.923 44.7025C116.533 45.3636 117.36 45.735 118.223 45.735H122.562C123.425 45.735 124.252 45.3636 124.863 44.7025C125.473 44.0414 125.816 43.1448 125.816 42.21C125.816 41.2751 125.473 40.3785 124.863 39.7174C124.252 39.0563 123.425 38.685 122.562 38.685H118.223ZM99.7849 58.66C99.7849 57.7251 100.128 56.8285 100.738 56.1674C101.348 55.5063 102.176 55.135 103.039 55.135H107.377C108.24 55.135 109.068 55.5063 109.678 56.1674C110.288 56.8285 110.631 57.7251 110.631 58.66C110.631 59.5948 110.288 60.4914 109.678 61.1525C109.068 61.8136 108.24 62.185 107.377 62.185H103.039C102.176 62.185 101.348 61.8136 100.738 61.1525C100.128 60.4914 99.7849 59.5948 99.7849 58.66ZM118.223 55.135C117.36 55.135 116.533 55.5063 115.923 56.1674C115.312 56.8285 114.97 57.7251 114.97 58.66C114.97 59.5948 115.312 60.4914 115.923 61.1525C116.533 61.8136 117.36 62.185 118.223 62.185H122.562C123.425 62.185 124.252 61.8136 124.863 61.1525C125.473 60.4914 125.816 59.5948 125.816 58.66C125.816 57.7251 125.473 56.8285 124.863 56.1674C124.252 55.5063 123.425 55.135 122.562 55.135H118.223Z" fill="#91CAE2"/>
</svg>
