<svg width="56" height="56" viewBox="0 0 56 56" fill="none" xmlns="http://www.w3.org/2000/svg">
<path d="M28 53C20.9289 53 9.70101 48.3 8.20101 40.5C8.28501 34.9 22.4 30.52 28 30.52C33.6 30.52 48.916 34.9 49 40.5C49 43.8 42.9568 48.5766 39.5 50C31 53.5 28.5 53 28 53ZM28 8.4C30.2278 8.4 32.3644 9.285 33.9397 10.8603C35.515 12.4356 36.4 14.5722 36.4 16.8C36.4 19.0278 35.515 21.1644 33.9397 22.7397C32.3644 24.315 30.2278 25.2 28 25.2C25.7722 25.2 23.6356 24.315 22.0603 22.7397C20.485 21.1644 19.6 19.0278 19.6 16.8C19.6 14.5722 20.485 12.4356 22.0603 10.8603C23.6356 9.285 25.7722 8.4 28 8.4ZM28 0C24.323 0 20.682 0.724241 17.2849 2.13137C13.8877 3.5385 10.8011 5.60097 8.20101 8.20101C2.94999 13.452 0 20.5739 0 28C0 35.4261 2.94999 42.548 8.20101 47.799C10.8011 50.399 13.8877 52.4615 17.2849 53.8686C20.682 55.2758 24.323 56 28 56C35.4261 56 42.548 53.05 47.799 47.799C53.05 42.548 56 35.4261 56 28C56 12.516 43.4 0 28 0Z" fill="white"/>
</svg>
